<?xml version="1.0" encoding="UTF-8"?>
<svg xmlns="http://www.w3.org/2000/svg" xmlns:xlink="http://www.w3.org/1999/xlink" width="36pt" height="36pt" viewBox="0 0 36 36" version="1.1">
<g id="surface8749">
<path style=" stroke:none;fill-rule:nonzero;fill:rgb(100%,100%,100%);fill-opacity:1;" d="M 18 3 C 14.699219 3 12 5.699219 12 9 L 12 12 L 9.375 12 C 7.523438 12 6 13.523438 6 15.375 L 6 29.625 C 6 31.476562 7.523438 33 9.375 33 L 26.625 33 C 28.476562 33 30 31.476562 30 29.625 L 30 15.375 C 30 13.523438 28.476562 12 26.625 12 L 24 12 L 24 9 C 24 5.699219 21.300781 3 18 3 Z M 18 5.25 C 20.085938 5.25 21.75 6.914062 21.75 9 L 21.75 12 L 14.25 12 L 14.25 9 C 14.25 6.914062 15.914062 5.25 18 5.25 Z M 9.375 14.25 L 26.625 14.25 C 27.261719 14.25 27.75 14.738281 27.75 15.375 L 27.75 29.625 C 27.75 30.261719 27.261719 30.75 26.625 30.75 L 9.375 30.75 C 8.738281 30.75 8.25 30.261719 8.25 29.625 L 8.25 15.375 C 8.25 14.738281 8.738281 14.25 9.375 14.25 Z M 18 20.25 C 16.757812 20.25 15.75 21.257812 15.75 22.5 C 15.75 23.742188 16.757812 24.75 18 24.75 C 19.242188 24.75 20.25 23.742188 20.25 22.5 C 20.25 21.257812 19.242188 20.25 18 20.25 Z M 18 20.25 "/>
</g>
</svg>
